<svg
                        width="16"
                        height="16"
                        viewBox="0 0 16 16"
                        fill="none"
                        xmlns="http://www.w3.org/2000/svg"
                      >
                        <path
                          d="M8 4.92952V8M8.09525 10.381C8.09525 10.4267 8.04954 10.4762 8.00001 10.4762C7.94668 10.4762 7.90478 10.4305 7.90478 10.381C7.90478 10.3276 7.94287 10.2857 8.00001 10.2857H7.9924C8.03811 10.2781 8.08383 10.3238 8.08383 10.3771M1.9048 7.33714V4.08381L1.89719 4.07619C1.88957 3.40571 2.32385 2.81905 2.96385 2.62095L7.53528 1.19238V1.18476C7.8248 1.08571 8.1448 1.08571 8.44195 1.18476L13.0134 2.61333L13.0058 2.60571C13.6381 2.80381 14.0724 3.39047 14.0724 4.05333V7.29904V7.29143C14.0724 10.4609 12.0991 13.3029 9.12766 14.4229L8.23623 14.7505H8.22861C8.05338 14.8114 7.8629 14.8114 7.68766 14.7429L6.79623 14.4076C3.81718 13.2876 1.85147 10.4457 1.85147 7.26857L1.9048 7.33714Z"
                          stroke="currentColor"
                          stroke-width="1.5"
                          stroke-linecap="round"
                          stroke-linejoin="round"
                        ></path>
                      </svg>